<svg width="768" height="280" fill="none" xmlns="http://www.w3.org/2000/svg"><path d="M133.2 280.001v-71.2H0v-24l142-184h18.4V184h35.2v24.8h-35.2v71.2h-27.2Zm-104.4-96H136v-140.4L28.8 184Z" fill="#458DFF"/><path d="M418.116 184c23.303-23.303 23.303-61.085 0-84.387-23.303-23.303-61.085-23.303-84.387 0-23.303 23.302-23.303 61.084 0 84.387 23.302 23.303 61.084 23.303 84.387 0Z" fill="#FDC500"/><path d="M354.476 127.638v28.338l-91.961 10.419v-49.176l91.961 10.419Zm39.107 28.338v-28.338l91.962-10.419v49.176l-91.962-10.419Zm-30.964.868h28.339l10.419 91.962H352.2l10.419-91.962Z" fill="#FDC500"/><path d="M412.561 178.445c20.235-20.235 20.235-53.043 0-73.278-20.235-20.235-53.043-20.235-73.278 0-20.235 20.235-20.235 53.043 0 73.278 20.235 20.235 53.043 20.235 73.278 0Z" fill="#458DFF"/><path d="M375.956 170.841c-16.009 0-29.033-13.026-29.033-29.035s13.026-29.033 29.033-29.033 29.035 13.026 29.035 29.033-13.026 29.035-29.035 29.035Z" fill="#FDC500"/><path d="M375.675 125.208a3.627 3.627 0 1 0 .001-7.255 3.627 3.627 0 0 0-.001 7.255ZM375.675 166.457a3.627 3.627 0 1 0 .001-7.255 3.627 3.627 0 0 0-.001 7.255ZM396.3 145.832a3.623 3.623 0 0 1-3.353-2.24 3.635 3.635 0 0 1 .788-3.955 3.622 3.622 0 0 1 3.955-.786 3.628 3.628 0 0 1 1.175 5.919 3.628 3.628 0 0 1-2.565 1.062ZM355.053 145.832a3.627 3.627 0 1 0 0-7.254 3.627 3.627 0 0 0 0 7.254ZM390.26 131.248a3.631 3.631 0 0 1-3.201-5.34 3.628 3.628 0 0 1 6.218-.304 3.627 3.627 0 0 1-.452 4.582 3.592 3.592 0 0 1-2.565 1.062Zm-29.167 29.169a3.631 3.631 0 0 1-3.559-2.922 3.625 3.625 0 0 1 2.171-4.06 3.628 3.628 0 0 1 3.953 5.919 3.598 3.598 0 0 1-2.565 1.063Zm29.167 0a3.634 3.634 0 0 1-3.56-2.922 3.625 3.625 0 0 1 2.171-4.06 3.629 3.629 0 1 1 1.389 6.982Zm-29.167-29.169a3.63 3.63 0 0 1-3.559-2.921 3.628 3.628 0 1 1 6.124 1.859 3.614 3.614 0 0 1-2.565 1.062Zm-96.947 0c.094-.97 38.793-1.002 44.349 7.328 5.556 8.33-45.98 14.584-45.98 14.584l1.631-21.912Zm222.479 0c-.092-.97-38.792-1.002-44.348 7.328-5.556 8.33 45.982 14.584 45.982 14.584l-1.634-21.912ZM386.414 252.477c.972-.094 1.002-38.793-7.328-44.35-8.33-5.558-14.585 45.982-14.585 45.982l21.913-1.632Z" fill="#458DFF"/><path d="M375.956 263.93c-67.338 0-122.12-54.776-122.12-122.122s54.776-122.12 122.12-122.12 122.122 54.775 122.122 122.12c0 67.344-54.784 122.122-122.122 122.122Zm0-224.603c-56.509 0-102.483 45.971-102.483 102.481 0 56.509 45.974 102.483 102.483 102.483 56.51 0 102.483-45.974 102.483-102.483 0-56.51-45.973-102.483-102.483-102.483v.002Z" fill="#458DFF"/><path d="M255.896 119.475c-.602-.06-4.161-.349-7.107 2.268a9.378 9.378 0 0 0-2.973 5.476 116690.55 116690.55 0 0 1-4.225 30.432 15.313 15.313 0 0 0-2.815 3.597c-2.29 4.063-2.081 8.101-1.878 9.853l18.998 58.928-4.933 35.948a6.374 6.374 0 0 0 3.465 6.578 58.786 58.786 0 0 0 17.004 5.45c14.459 2.284 26.51-1.427 33.567-4.474a5.797 5.797 0 0 0 3.352-6.624l-7.841-33.927 2.597-37.677a8.181 8.181 0 0 0-.776-4.08l-13.619-28.54c-3.088-4.97-8.704-6.295-11.894-4.23-2.971 1.92-3.016 6.247-3.014 6.68l5.568 21.643-19.155-32.973-4.321-34.328Zm200.195-68.303a4.439 4.439 0 0 1 1.359-6.127c1.395-.882 3.097-1.555 4.989-1.455 2.672.142 4.647 1.67 5.621 2.687l21.292 22.148c1.52.198 3.001.622 4.394 1.259 4.239 1.942 6.441 5.332 7.308 6.874l19.237 58.857 25.108 26.196a6.368 6.368 0 0 1 1.059 7.359 58.761 58.761 0 0 1-10.563 14.397c-10.367 10.354-22.309 14.422-29.804 16.096a5.786 5.786 0 0 1-6.588-3.397l-13.582-32.064-24.23-28.963a8.149 8.149 0 0 1-1.767-3.756l-5.743-31.098c-.418-5.835 3.339-10.207 7.142-10.41 3.534-.19 6.111 3.285 6.361 3.633l8.205 20.786-3.87-37.93-15.928-25.092Z" fill="#E67925"/><path d="M498.077 95.656a.335.335 0 0 1-.335-.294l-1.683-13.648a13.894 13.894 0 0 0-2.229-5.993l-4.755-7.1a.336.336 0 0 1 .102-.447.334.334 0 0 1 .453.077l4.754 7.1a14.529 14.529 0 0 1 2.338 6.287l1.683 13.647a.317.317 0 0 1-.009.13.34.34 0 0 1-.157.201.343.343 0 0 1-.124.041l-.038-.001Zm-248.179 84.682a.34.34 0 0 1-.168-.044.345.345 0 0 1-.123-.123l-7.201-12.735a8.905 8.905 0 0 1-1.149-4.374v-5.423a.334.334 0 0 1 .668 0v5.423a8.231 8.231 0 0 0 1.062 4.038l7.21 12.739a.336.336 0 0 1-.299.499Z" fill="#68003C"/><path d="M705.38 280.001v-71.2h-133.2v-24l142-184h18.4V184h35.2v24.8h-35.2v71.2h-27.2Zm-104.4-96h107.2v-140.4L600.98 184Z" fill="#458DFF"/></svg>