<svg xmlns="http://www.w3.org/2000/svg" width="222" height="229" fill="none"><g clip-path="url(#a)"><path fill="url(#b)" d="M172.853 148.306c-3.344 3.519-6.505 5.787-9.003 7.578-29.362 21.06-64.1 14.921-71.487 13.423-10.906-2.215-31.977-6.491-47.214-24.408-23.051-27.104-19.461-69.798-1.58-97.983 3.273-5.158 20.548-33.771 55.663-38.36 21.253-2.778 46.021 2.827 63.96 17.853 37.66 31.533 34.98 95.246 9.661 121.897Z"/><path fill="#BDD0FB" d="m168.568 19.848 8.385 20.226a18.942 18.942 0 0 1-.969 16.5l-17 30.382a18.937 18.937 0 0 0-2.297 11.332l1.892 17.1a18.935 18.935 0 0 1-6.904 16.8c-7.956 6.444-19.591 5.405-26.278-2.349l-10.6-12.289a18.936 18.936 0 0 1-2.639-20.76L123.27 74.29a18.926 18.926 0 0 0 1.939-9.263l-1.534-33.014A18.95 18.95 0 0 1 134.44 14.04l8.462-4.036c9.795-4.676 21.512-.182 25.666 9.845Z"/><path fill="#7D97F4" d="M135.962 139.673c-1.486-26.505 2.527-53.386 6.158-71.267 2.174-10.703 4.366-19.045 5.823-24.161.97-3.407 1.693-5.651 2.128-6.938.94-2.79 1.134-2.907 1.416-3.095a.963.963 0 0 1 1.334.3.979.979 0 0 1-.071 1.139c-1.357 2.584-17.634 54.355-14.849 103.916a.966.966 0 0 1-1.069 1.016.97.97 0 0 1-.87-.91Z"/><path fill="#91B3FA" d="M149.537 105.302a12.19 12.19 0 0 0 5.265-11.009c-.359-4.646.37-9.833 2.327-14.985 5.123-13.517 16.746-21.647 25.954-18.158 9.208 3.49 12.516 17.277 7.392 30.794a37.277 37.277 0 0 1-3.655 7.22c-2.151 3.295-2.591 7.418-1.116 11.066a15.314 15.314 0 0 1 .123 11.214 15.377 15.377 0 0 1-11.399 9.64 12.073 12.073 0 0 0-7.416 4.711c-5.083 6.961-12.763 10.392-19.314 7.907-8.391-3.178-11.747-14.862-7.486-26.094 2.027-5.345 5.417-9.633 9.325-12.306Z"/><path fill="#7D97F4" d="M139.601 159.068a.593.593 0 0 0 .611-.187c7.644-9.065 15.383-25.983 20.536-38.571 5.571-13.617 9.396-25.26 9.431-25.377a.602.602 0 0 0-.381-.752.603.603 0 0 0-.753.382c-.152.464-15.295 46.401-29.75 63.548a.596.596 0 0 0 .071.84.935.935 0 0 0 .235.117Z"/><path fill="url(#c)" d="M34.86 15.437c-.594 23.99-2.527 106.753-1.605 136.083a5.896 5.896 0 0 0 5.7 5.704c15.372.506 59.588 1.78 84.732.723 5.235-.217 9.402-4.459 9.507-9.699.523-25.183 1.675-96.015-1.063-128.464a8.09 8.09 0 0 0-7.263-7.373c-16.741-1.674-61.204-5.768-82.922-4.358a7.58 7.58 0 0 0-7.087 7.383Z"/><path fill="#91B3FA" d="M41.106 22.89c-.84 19.65-3.49 85.025-2.65 109.198a6.843 6.843 0 0 0 6.44 6.597c14.537.852 51.82 2.726 73.138 1.016a7.686 7.686 0 0 0 7.057-7.254c1.082-20.049 4.184-80.919 3.379-104.821a7.558 7.558 0 0 0-6.887-7.267c-15.724-1.41-56.115-4.77-74.231-3.783a6.602 6.602 0 0 0-6.246 6.315Z"/><path fill="#3F67F9" d="M72.848 12.24a1.38 1.38 0 0 0 1.31 1.38c3.631.188 13.856.729 18.427.993a1.386 1.386 0 0 0 1.44-1.645l-.03-.152a1.386 1.386 0 0 0-1.234-1.117c-3.09-.281-12.41-1.069-18.591-.845-.74.029-1.322.646-1.322 1.386Z" opacity=".5"/><path fill="#fff" d="M128.723 60.58h-17.887a1.775 1.775 0 0 1-1.775-1.763c-.064-15.99-.123-37.53-.017-39.575-.006.106-3.303-.217-3.303-.217-.052 1.045.018-.423-.005 1.756a766.12 766.12 0 0 0-.03 5.281c-.006 3.795-.006 9.029.012 15.561.023 11.114.076 22.293.076 22.405l.006 1.233a2.154 2.154 0 0 0 2.151 2.144h3.731c.647 0 1.169.523 1.169 1.17V88.91a2.43 2.43 0 0 1-2.432 2.432h-9.29a2.473 2.473 0 0 1-2.333-1.639l-7.169-19.86a2.892 2.892 0 0 0-2.72-1.91h-8.673a1.137 1.137 0 0 1-1.11-1.392l11.075-48.663-4.571-.3-10.56 47.577a3.539 3.539 0 0 1-3.454 2.772h-3.215a2.13 2.13 0 0 1-2.133-2.138c.012-4.318.03-10.603.036-16.865.011-6.532.011-11.766.006-15.55-.012-7.542.246-16.271.129-16.765 0 0-2.162-.029-2.162-.07.076 1.521.27 31.944.24 49.385a2 2 0 0 1-2.003 1.997h-3.02a2.579 2.579 0 0 1-2.557-2.238c-1.886-14.28-6.416-48.51-6.54-49.29-2.08.046-3.978.158-4.977.58 0 0 5.019 37.76 7.334 55.272a2.889 2.889 0 0 0 2.861 2.508h13.48a1.677 1.677 0 0 1 1.545 2.32l-9.466 22.687a3.522 3.522 0 0 1-3.255 2.168H38.49l-.112 6.82H58.95a4.22 4.22 0 0 0 3.896-2.597l12.228-29.295a3.433 3.433 0 0 1 3.16-2.109h9.22a2.62 2.62 0 0 1 2.462 1.727l4.742 13.141c.3.834-.317 1.721-1.21 1.721H80.287c-.647 0-1.176.529-1.176 1.175v47.435h1.746V97.2c0-1.234.999-2.232 2.233-2.232h11.34c1.299 0 2.45.81 2.891 2.032l14.108 39.076 2.627-4.089-12.769-35.357a1.236 1.236 0 0 1 1.164-1.656h12.087a2.276 2.276 0 0 0 2.274-2.274V69.397c0-1.105.893-1.997 1.998-1.997h9.913v-6.82Z" opacity=".73"/><path fill="url(#d)" d="M114.925 94.14H98.108a.991.991 0 0 1-.928-.64l-8.397-22.011h-33.67c-.5 0-.922-.37-.981-.864l-6.346-49.144a.992.992 0 1 1 1.968-.253l6.229 48.28h33.481c.412 0 .782.254.929.641L98.79 92.16h15.142V64.222c0-.546.447-.993.993-.993s.993.447.993.993v28.93a.995.995 0 0 1-.993.988Z"/><path fill="url(#e)" d="M114.839 67.4a5.076 5.076 0 1 0 0-10.152 5.076 5.076 0 0 0 0 10.152Z"/><path fill="url(#f)" d="M168.658 25.246h-5.465v141.541h5.465V25.246Z"/><path fill="#fff" d="M188.576 52.426c0 6.098-4.948 11.044-11.047 11.044h-24.691c-6.099 0-11.047-4.946-11.047-11.044V27.742c0-6.097 4.948-11.043 11.047-11.043h24.691c6.099 0 11.047 4.946 11.047 11.043v24.684Z"/><path fill="url(#g)" d="M186.007 27.73c0-4.787-3.884-8.67-8.673-8.67h-24.509c-4.789 0-8.673 3.883-8.673 8.67v24.502c0 4.788 3.884 8.67 8.673 8.67h24.515c4.789 0 8.673-3.882 8.673-8.67V27.731h-.006Z"/><path fill="#fff" d="M155.529 27.109c1.851-.317 4.454-.552 8.121-.552 3.708 0 6.346.71 8.121 2.126 1.698 1.34 2.838 3.548 2.838 6.15 0 2.603-.87 4.812-2.445 6.31-2.05 1.932-5.088 2.796-8.637 2.796-.788 0-1.499-.041-2.051-.118v9.499h-5.953V27.109h.006Zm5.953 12.06c.511.117 1.146.159 2.009.159 3.197 0 5.165-1.616 5.165-4.336 0-2.444-1.698-3.9-4.695-3.9-1.222 0-2.05.117-2.485.235v7.842h.006Z"/><path fill="url(#h)" d="M102.105 150.31a5.328 5.328 0 0 0-5.33-5.328h-2.373a5.328 5.328 0 0 0-5.33 5.328v14.216a5.328 5.328 0 0 0 5.33 5.328h2.374a5.328 5.328 0 0 0 5.329-5.328V150.31Z"/><path fill="url(#i)" d="M175.549 150.31a5.329 5.329 0 0 0-5.33-5.328h-2.374a5.328 5.328 0 0 0-5.329 5.328v14.216a5.328 5.328 0 0 0 5.329 5.328h2.374a5.329 5.329 0 0 0 5.33-5.328V150.31Z"/><path fill="url(#j)" d="M96.154 123.646c-.159-.035-.365-.176-.365-.341v-1.092c0-1.058-.505-2.021-1.445-2.497a4.348 4.348 0 0 0-3.831-.059l-2.15 1.058c-1.082.505-1.652 1.592-1.652 2.784v.834c0 1.539 1.04 2.838 2.562 3.043l9.278 1.269 1.087-4.247-3.484-.752Z"/><path fill="url(#k)" d="M168.951 123.646a.356.356 0 0 0 .282-.341v-1.092c0-1.058.588-2.021 1.528-2.497a4.437 4.437 0 0 1 3.872-.059l2.386 1.058c1.081.505 1.886 1.592 1.886 2.784v.834c0 1.539-1.252 2.838-2.774 3.043l-9.389 1.269-1.181-4.247 3.39-.752Z"/><path fill="url(#l)" d="M175.761 133.039c-1.351-4.558-8.332-8.782-8.332-8.782s-5.853-17.957-12.158-17.957h-45.439c-6.305 0-12.157 17.957-12.157 17.957s-6.98 4.218-8.332 8.776c-.987 3.331 1.151 16.19 2.374 22.799.428 2.332 2.632 4.147 5.2 4.147H168.175c2.568 0 4.772-1.815 5.2-4.147 1.229-6.609 3.373-19.462 2.386-22.793Z"/><path fill="#FF2121" d="M174.881 152.119c-.394-.446-.993-.822-1.628-.822H91.847c-.628 0-1.228.37-1.622.816a1.84 1.84 0 0 0-.4 1.639l1.335 5.428c.211.852 1.052 1.592 2.021 1.592h78.68c.958 0 1.792-.705 2.015-1.545l1.399-5.404c.147-.558 0-1.251-.394-1.704Z"/><path fill="#BDD0FB" d="M110.562 143.972s-2.027-6.074-4.578-6.602c-2.55-.523-13.356-2.779-13.579-.899-.223 1.874-2.403 8.33 4.054 8.929 6.452.599 15.143 1.092 14.103-1.428ZM154.538 143.972s2.028-6.074 4.578-6.602c2.55-.523 13.356-2.779 13.579-.899.224 1.874 2.404 8.33-4.054 8.929-6.446.599-15.143 1.092-14.103-1.428Z"/><path fill="#FF2121" d="M153.086 138.691c-.212-.323-.57-.617-.952-.617h-39.158c-.4 0-.77.306-.975.647a1.23 1.23 0 0 0-.03 1.169l2.204 4.258c.817 1.539 2.421 2.609 4.166 2.609h28.775c1.862 0 3.549-1.175 4.307-2.873l1.757-4.024c.147-.352.111-.846-.094-1.169Z"/><path fill="#7D97F4" d="M163.746 125.768c-.253.387-.688.663-1.152.663h-60.088c-.47 0-.911-.282-1.164-.681a1.422 1.422 0 0 1-.082-1.345c1.363-2.873 3.925-8.207 5.359-11.185a3.83 3.83 0 0 1 3.449-2.179h45.439c1.334 0 2.556.693 3.25 1.803.094.159.182.323.258.494l4.836 11.108a1.38 1.38 0 0 1-.105 1.322Z"/><path fill="#91B3FA" d="M158.762 112.837c-3.185.629-12.539 2.191-26.647 2.191-14.226 0-22.57-1.597-25.279-2.214a3.822 3.822 0 0 1 3.232-1.78h45.439c1.34 0 2.562.699 3.255 1.803Z"/><path fill="#fff" d="M109.592 135.706a.217.217 0 0 1-.153-.058l-7.786-7.367a.225.225 0 0 1 .312-.323l7.785 7.366c.088.089.094.23.006.318a.23.23 0 0 1-.164.064ZM154.931 135.705a.232.232 0 0 1-.165-.07.223.223 0 0 1 .006-.317l7.786-7.367a.229.229 0 0 1 .317.006.222.222 0 0 1-.006.317l-7.785 7.367a.192.192 0 0 1-.153.064ZM151.876 97.23c1.105-.927 5.306-7.965 12.029 0 .728.383 2.609-.68 2.368-1.427-7.863-11.466-17.658-.704-16.7.476.964 1.18 1.017 2.033 2.303.952Z"/><path fill="#fff" d="M171.014 92.455c1.469-.17 2.844-1.175 2.433-2.456-.406-1.263-14.408-17.611-29.997.817a1.115 1.115 0 0 0 .135 1.574c.711.593 1.316.987 2.098.893 14.272-16.178 23.868-.652 25.331-.828Z"/><path fill="#fff" d="M178.306 87.573c1.04.212 3.173-.575 2.62-2.285-24.638-26.804-46.585 1.293-45.78 2.42.805 1.134 2.439 1.175 3.097.794 19.614-25.16 39.017-1.14 40.063-.928ZM161.048 101.325a3.267 3.267 0 0 1-3.267 3.266 3.261 3.261 0 0 1-3.261-3.266 3.26 3.26 0 0 1 3.261-3.26 3.258 3.258 0 0 1 3.267 3.26Z"/><path fill="#3C4158" d="M61.644 216.927c-1.405 0-2.684-.281-3.837-.843-1.152-.562-2.08-1.321-2.782-2.277a5.343 5.343 0 0 1-1.054-3.246c0-1.94.787-3.486 2.36-4.638 1.575-1.153 3.627-1.911 6.156-2.277l6.282-.885v-1.223c0-1.349-.386-2.403-1.16-3.162-.772-.759-2.03-1.138-3.772-1.138-1.265 0-2.284.253-3.057.758-.773.506-1.314 1.153-1.623 1.94-.17.422-.464.632-.886.632h-1.897c-.31 0-.541-.091-.696-.274a.977.977 0 0 1-.232-.653c0-.422.162-.942.485-1.56.324-.619.822-1.223 1.497-1.813.675-.59 1.539-1.089 2.593-1.497 1.054-.407 2.34-.611 3.858-.611 1.686 0 3.105.218 4.258.653 1.152.436 2.059 1.019 2.72 1.75a6.7 6.7 0 0 1 1.433 2.488c.295.927.442 1.869.442 2.824v13.661a.94.94 0 0 1-.273.695.941.941 0 0 1-.696.274h-1.94c-.309 0-.548-.091-.716-.274a.983.983 0 0 1-.253-.695v-1.813c-.366.506-.858 1.005-1.476 1.496-.618.492-1.391.9-2.319 1.223-.927.323-2.066.485-3.415.485Zm.886-3.162c1.152 0 2.206-.246 3.162-.738.955-.492 1.707-1.258 2.255-2.298.548-1.04.822-2.347.822-3.921v-1.18l-4.89.716c-1.996.282-3.5.752-4.512 1.413-1.011.66-1.517 1.497-1.517 2.508 0 .787.231 1.441.695 1.961.464.52 1.054.906 1.771 1.159.717.253 1.455.38 2.213.38ZM80.196 216.504a.941.941 0 0 1-.695-.274.944.944 0 0 1-.274-.696v-19.942c0-.281.09-.52.274-.717a.907.907 0 0 1 .695-.295h1.94c.28 0 .52.098.716.295a.977.977 0 0 1 .296.717v1.855a5.35 5.35 0 0 1 2.319-2.15c.983-.478 2.164-.717 3.541-.717h1.687c.28 0 .505.091.674.274a.987.987 0 0 1 .253.696v1.728c0 .281-.084.506-.253.675-.169.169-.394.253-.674.253h-2.53c-1.518 0-2.713.443-3.584 1.328s-1.307 2.087-1.307 3.605v12.395a.91.91 0 0 1-.295.696 1.014 1.014 0 0 1-.717.274h-2.066ZM96.679 216.505a.945.945 0 0 1-.696-.274.944.944 0 0 1-.274-.696V187.54c0-.281.091-.513.274-.696a.941.941 0 0 1 .696-.274h1.981c.281 0 .513.091.696.274a.944.944 0 0 1 .274.696v14.672l8.306-6.915c.337-.281.597-.47.78-.569.182-.098.485-.147.906-.147h2.235c.253 0 .464.084.632.253a.855.855 0 0 1 .253.632.868.868 0 0 1-.105.38c-.07.14-.204.281-.401.421l-9.739 8.095 10.793 10.498c.338.281.506.534.506.759a.859.859 0 0 1-.253.633.859.859 0 0 1-.632.253h-2.193c-.421 0-.73-.05-.927-.148-.197-.098-.45-.288-.759-.569l-9.402-8.98v8.727a.944.944 0 0 1-.274.696.945.945 0 0 1-.696.274H96.68ZM125.815 216.927c-2.136 0-3.921-.408-5.354-1.223a8.22 8.22 0 0 1-3.289-3.394c-.759-1.447-1.18-3.099-1.265-4.954a32.508 32.508 0 0 1-.042-1.834c0-.745.014-1.342.042-1.792.085-1.883.513-3.541 1.286-4.975a8.411 8.411 0 0 1 3.31-3.373c1.433-.815 3.204-1.222 5.312-1.222s3.879.407 5.313 1.222a8.409 8.409 0 0 1 3.309 3.373c.773 1.434 1.202 3.092 1.286 4.975.028.45.042 1.047.042 1.792 0 .745-.014 1.356-.042 1.834-.084 1.855-.506 3.507-1.265 4.954a8.218 8.218 0 0 1-3.288 3.394c-1.434.815-3.219 1.223-5.355 1.223Zm0-3.246c1.743 0 3.134-.556 4.174-1.666 1.04-1.11 1.602-2.733 1.687-4.87.028-.421.042-.955.042-1.602 0-.646-.014-1.18-.042-1.602-.085-2.136-.647-3.759-1.687-4.869-1.04-1.111-2.431-1.666-4.174-1.666-1.742 0-3.141.555-4.195 1.666-1.054 1.11-1.609 2.733-1.665 4.869-.028.422-.042.956-.042 1.602 0 .647.014 1.181.042 1.602.056 2.137.611 3.76 1.665 4.87 1.054 1.11 2.453 1.666 4.195 1.666ZM142.425 216.505a.943.943 0 0 1-.696-.274.939.939 0 0 1-.274-.695v-19.985c0-.281.091-.513.274-.696a.947.947 0 0 1 .696-.274h1.981c.281 0 .513.092.696.274a.943.943 0 0 1 .274.696v1.855a8.615 8.615 0 0 1 2.762-2.34c1.11-.604 2.536-.906 4.279-.906 1.743 0 3.38.4 4.659 1.201s2.241 1.912 2.888 3.331c.646 1.42.97 3.071.97 4.954v11.89a.986.986 0 0 1-.253.695c-.169.183-.394.274-.675.274h-2.108a.943.943 0 0 1-.696-.274.943.943 0 0 1-.274-.695v-11.679c0-1.968-.478-3.507-1.433-4.617-.956-1.11-2.361-1.665-4.216-1.665-1.743 0-3.141.555-4.195 1.665-1.054 1.11-1.581 2.649-1.581 4.617v11.679a.943.943 0 0 1-.274.695.943.943 0 0 1-.696.274h-2.108ZM173.543 216.927c-1.406 0-2.685-.281-3.837-.843-1.153-.562-2.08-1.321-2.783-2.277a5.341 5.341 0 0 1-1.054-3.246c0-1.94.787-3.486 2.361-4.638 1.574-1.153 3.626-1.911 6.156-2.277l6.282-.885v-1.223c0-1.349-.387-2.403-1.16-3.162-.773-.759-2.03-1.138-3.773-1.138-1.265 0-2.284.253-3.057.758-.773.506-1.314 1.153-1.623 1.94-.169.422-.464.632-.885.632h-1.898c-.309 0-.541-.091-.695-.274a.974.974 0 0 1-.232-.653c0-.422.161-.942.485-1.56.323-.619.822-1.223 1.496-1.813.675-.59 1.539-1.089 2.593-1.497 1.054-.407 2.34-.611 3.858-.611 1.687 0 3.106.218 4.258.653 1.153.436 2.059 1.019 2.72 1.75a6.705 6.705 0 0 1 1.433 2.488c.295.927.443 1.869.443 2.824v13.661a.939.939 0 0 1-.274.695.943.943 0 0 1-.696.274h-1.939c-.309 0-.548-.091-.717-.274a.981.981 0 0 1-.253-.695v-1.813c-.365.506-.857 1.005-1.476 1.496-.618.492-1.391.9-2.318 1.223-.928.323-2.066.485-3.415.485Zm.885-3.162c1.152 0 2.206-.246 3.162-.738s1.708-1.258 2.256-2.298c.548-1.04.822-2.347.822-3.921v-1.18l-4.891.716c-1.996.282-3.499.752-4.511 1.413-1.012.66-1.518 1.497-1.518 2.508 0 .787.232 1.441.696 1.961.463.52 1.054.906 1.77 1.159.717.253 1.455.38 2.214.38ZM194.07 216.501a.943.943 0 0 1-.696-.274.943.943 0 0 1-.274-.695V197.95h-3.583a.941.941 0 0 1-.696-.274.939.939 0 0 1-.274-.695v-1.434c0-.281.091-.513.274-.695a.941.941 0 0 1 .696-.274h3.583v-2.109c0-1.433.239-2.691.717-3.773.478-1.082 1.244-1.918 2.298-2.509 1.054-.59 2.466-.885 4.237-.885h2.53c.281 0 .506.091.674.274a.986.986 0 0 1 .253.696v1.433a.986.986 0 0 1-.253.696c-.168.183-.393.274-.674.274h-2.446c-1.321 0-2.22.344-2.698 1.033-.478.689-.717 1.679-.717 2.972v1.898h5.439c.281 0 .506.091.675.274a.986.986 0 0 1 .253.695v1.434a.986.986 0 0 1-.253.695c-.169.183-.394.274-.675.274h-5.439v17.582a.939.939 0 0 1-.274.695.939.939 0 0 1-.695.274h-1.982ZM216.123 216.505c-1.574 0-2.853-.302-3.837-.907-.984-.604-1.7-1.461-2.15-2.572-.45-1.11-.675-2.424-.675-3.942v-11.13h-3.288a.947.947 0 0 1-.696-.274.943.943 0 0 1-.274-.696v-1.434c0-.281.091-.513.274-.695a.943.943 0 0 1 .696-.274h3.288v-7.041c0-.281.092-.513.274-.696a.943.943 0 0 1 .696-.274h1.982c.281 0 .513.091.695.274a.943.943 0 0 1 .274.696v7.041h5.228c.282 0 .513.091.696.274a.939.939 0 0 1 .274.695v1.434a.943.943 0 0 1-.274.696.945.945 0 0 1-.696.274h-5.228v10.835c0 1.321.225 2.361.675 3.12.45.759 1.251 1.138 2.403 1.138h2.572c.281 0 .513.092.696.274a.947.947 0 0 1 .274.696v1.518a.947.947 0 0 1-.274.696.947.947 0 0 1-.696.274h-2.909ZM16.032 218.187c-.315 0-.559-.093-.731-.277a.991.991 0 0 1-.258-.703v-27.811c0-.312.086-.56.258-.745.172-.184.416-.277.73-.277h10.923c2.12 0 3.963.341 5.525 1.022 1.562.682 2.773 1.697 3.633 3.046.86 1.348 1.29 3.03 1.29 5.046 0 2.016-.43 3.691-1.29 5.026-.86 1.334-2.07 2.342-3.633 3.024-1.562.681-3.404 1.022-5.525 1.022h-7.611v10.647a.948.948 0 0 1-.28.703c-.186.184-.437.277-.752.277h-2.28Zm3.268-15.205h7.439c2.12 0 3.712-.468 4.772-1.405 1.061-.937 1.591-2.3 1.591-4.089 0-1.788-.516-3.123-1.548-4.088-1.032-.966-2.637-1.448-4.815-1.448h-7.44v11.03Z"/><path fill="#218BEE" d="M43.659 226.582H6.923A4.926 4.926 0 0 1 2 221.659v-36.736A4.926 4.926 0 0 1 6.923 180h36.736a4.926 4.926 0 0 1 4.923 4.923v36.736a4.926 4.926 0 0 1-4.923 4.923ZM6.923 183.536a1.39 1.39 0 0 0-1.387 1.387v36.736c0 .764.623 1.386 1.387 1.386h36.736c.764 0 1.386-.622 1.386-1.386v-36.736a1.39 1.39 0 0 0-1.386-1.387H6.923Z"/></g><defs><linearGradient id="h" x1="94.805" x2="98.356" y1="175.793" y2="92.9" gradientUnits="userSpaceOnUse"><stop stop-color="#09005D"/><stop offset="1" stop-color="#1A0F91"/></linearGradient><linearGradient id="b" x1="212.867" x2="67.459" y1="219.526" y2="38.886" gradientUnits="userSpaceOnUse"><stop stop-color="#DAE3FE"/><stop offset="1" stop-color="#E9EFFD"/></linearGradient><linearGradient id="d" x1="47.775" x2="115.915" y1="57.251" y2="57.251" gradientUnits="userSpaceOnUse"><stop stop-color="#4F52FF"/><stop offset="1" stop-color="#4042E2"/></linearGradient><linearGradient id="e" x1="109.765" x2="119.915" y1="62.325" y2="62.325" gradientUnits="userSpaceOnUse"><stop stop-color="#4F52FF"/><stop offset="1" stop-color="#4042E2"/></linearGradient><linearGradient id="f" x1="191.405" x2="264.432" y1="72.886" y2="6.551" gradientUnits="userSpaceOnUse"><stop stop-color="#4F52FF"/><stop offset="1" stop-color="#4042E2"/></linearGradient><linearGradient id="g" x1="162.443" x2="165.224" y1="79.579" y2="37.853" gradientUnits="userSpaceOnUse"><stop stop-color="#4F52FF"/><stop offset="1" stop-color="#4042E2"/></linearGradient><linearGradient id="c" x1="82.924" x2="83.713" y1="-5.6" y2="164.133" gradientUnits="userSpaceOnUse"><stop stop-color="#09005D"/><stop offset="1" stop-color="#1A0F91"/></linearGradient><linearGradient id="i" x1="168.11" x2="171.662" y1="178.933" y2="96.04" gradientUnits="userSpaceOnUse"><stop stop-color="#09005D"/><stop offset="1" stop-color="#1A0F91"/></linearGradient><linearGradient id="j" x1="125.94" x2="116.469" y1="9.275" y2="42.434" gradientUnits="userSpaceOnUse"><stop stop-color="#FF928E"/><stop offset="1" stop-color="#FE7062"/></linearGradient><linearGradient id="k" x1="-6.315" x2="3.156" y1="-500.914" y2="-467.756" gradientUnits="userSpaceOnUse"><stop stop-color="#FF928E"/><stop offset="1" stop-color="#FE7062"/></linearGradient><linearGradient id="l" x1="132.979" x2="132.189" y1="107.419" y2="159.523" gradientUnits="userSpaceOnUse"><stop stop-color="#FF928E"/><stop offset="1" stop-color="#FE7062"/></linearGradient><clipPath id="a"><path fill="#fff" d="M0 0h222v229H0z"/></clipPath></defs></svg>