<svg xmlns="http://www.w3.org/2000/svg" width="765" height="336" fill="none"><path fill="#458DFF" d="M91.8 307.602c-20 0-38.133-5.067-54.4-15.2-16.267-9.867-28.4-22.934-36.4-39.2l18-13.6c7.467 13.066 17.6 23.6 30.4 31.6 13.067 8 27.333 12 42.8 12 13.333 0 25.2-2.934 35.6-8.8 10.667-5.867 19.067-14 25.2-24.4 6.4-10.4 9.6-22.4 9.6-36 0-13.067-3.067-24.534-9.2-34.4-5.867-10.134-14-18-24.4-23.6-10.133-5.6-21.6-8.4-34.4-8.4-12.267 0-24 2.8-35.2 8.4-11.2 5.333-20.267 13.2-27.2 23.6H7l31.6-160h137.2v25.2H59l-19.6 102c6.933-7.467 15.467-13.2 25.6-17.2 10.133-4.267 21.067-6.4 32.8-6.4 17.333 0 32.933 3.866 46.8 11.6 14.133 7.733 25.333 18.4 33.6 32 8.267 13.6 12.4 29.2 12.4 46.8 0 18.666-4.533 35.066-13.6 49.2-8.8 14.133-20.667 25.066-35.6 32.8-14.933 8-31.467 12-49.6 12Z"/><path fill="#FDC500" d="M398.121 202.802c23.303-23.302 23.303-61.084 0-84.387-23.303-23.303-61.084-23.303-84.387 0-23.303 23.303-23.303 61.085 0 84.387 23.303 23.303 61.084 23.303 84.387 0Z"/><path fill="#FDC500" d="M334.482 146.44v28.339l-91.962 10.419v-49.177l91.962 10.419Zm39.106 28.339V146.44l91.962-10.419v49.177l-91.962-10.419Zm-30.963.868h28.338l10.419 91.962h-49.177l10.42-91.962Z"/><path fill="#458DFF" d="M392.566 197.248c20.235-20.235 20.235-53.043 0-73.278-20.235-20.235-53.042-20.235-73.277 0-20.236 20.235-20.236 53.043 0 73.278 20.235 20.235 53.042 20.235 73.277 0Z"/><path fill="#FDC500" d="M355.961 189.643c-16.008 0-29.033-13.026-29.033-29.034 0-16.009 13.026-29.033 29.033-29.033s29.035 13.026 29.035 29.033-13.026 29.034-29.035 29.034Z"/><path fill="#458DFF" d="M355.681 144.01a3.627 3.627 0 1 0 0-7.254 3.627 3.627 0 1 0 0 7.254ZM355.681 185.259a3.627 3.627 0 1 0 0-7.254 3.627 3.627 0 1 0 0 7.254ZM376.305 164.635a3.627 3.627 0 0 1-3.559-4.337 3.631 3.631 0 0 1 4.949-2.644 3.626 3.626 0 0 1 2.239 3.354 3.632 3.632 0 0 1-3.629 3.627ZM335.058 164.635a3.627 3.627 0 1 0 0-7.254 3.627 3.627 0 0 0 0 7.254ZM370.265 150.051a3.628 3.628 0 1 1-.001-7.257 3.628 3.628 0 0 1 .001 7.257Zm-29.167 29.168a3.628 3.628 0 1 1 0-7.255 3.628 3.628 0 0 1 0 7.255Zm29.167 0a3.628 3.628 0 1 1-.001-7.257 3.628 3.628 0 0 1 .001 7.257Zm-29.167-29.168a3.628 3.628 0 0 1-1.388-6.982 3.634 3.634 0 0 1 2.442-.12 3.63 3.63 0 0 1-1.054 7.102Zm-96.947 0c.094-.97 38.793-1.002 44.349 7.328 5.556 8.33-45.98 14.584-45.98 14.584l1.631-21.912Zm222.479 0c-.091-.97-38.792-1.002-44.348 7.328-5.556 8.33 45.982 14.584 45.982 14.584l-1.634-21.912ZM366.419 271.28c.972-.094 1.002-38.793-7.328-44.351-8.33-5.557-14.584 45.982-14.584 45.982l21.912-1.631Z"/><path fill="#458DFF" d="M355.961 282.732c-67.338 0-122.12-54.776-122.12-122.122s54.776-122.12 122.12-122.12c67.345 0 122.122 54.776 122.122 122.12 0 67.345-54.784 122.122-122.122 122.122Zm0-224.603c-56.509 0-102.483 45.972-102.483 102.481 0 56.51 45.974 102.483 102.483 102.483 56.51 0 102.483-45.973 102.483-102.483 0-56.509-45.973-102.483-102.483-102.483v.002Z"/><path fill="#E67925" d="M235.902 138.277c-.603-.06-4.162-.349-7.108 2.268a9.381 9.381 0 0 0-2.973 5.476c-1.407 10.144-2.815 20.288-4.225 30.433a15.293 15.293 0 0 0-2.815 3.597c-2.29 4.063-2.081 8.101-1.877 9.853l18.998 58.927-4.934 35.949a6.367 6.367 0 0 0 3.466 6.578 58.765 58.765 0 0 0 17.004 5.449c14.458 2.285 26.509-1.426 33.567-4.474a5.793 5.793 0 0 0 3.351-6.623l-7.84-33.928 2.596-37.677a8.175 8.175 0 0 0-.776-4.079l-13.619-28.541c-3.088-4.97-8.704-6.294-11.894-4.23-2.971 1.921-3.016 6.248-3.014 6.68l5.568 21.643-19.155-32.972-4.32-34.329Zm200.194-68.303a4.439 4.439 0 0 1 1.36-6.127c1.394-.882 3.096-1.555 4.988-1.454 2.672.142 4.647 1.67 5.621 2.687l21.293 22.147c1.519.198 3 .623 4.393 1.26 4.239 1.942 6.442 5.332 7.308 6.873l19.237 58.858 25.108 26.195a6.371 6.371 0 0 1 1.059 7.36A58.761 58.761 0 0 1 515.9 202.17c-10.367 10.354-22.309 14.422-29.804 16.095a5.786 5.786 0 0 1-6.588-3.396l-13.582-32.064-24.23-28.963a8.158 8.158 0 0 1-1.767-3.756l-5.743-31.099c-.418-5.835 3.34-10.207 7.142-10.409 3.534-.19 6.111 3.285 6.361 3.632l8.205 20.787-3.869-37.93-15.929-25.093Z"/><path fill="#68003C" d="M478.082 114.458a.332.332 0 0 1-.334-.294l-1.684-13.647a13.894 13.894 0 0 0-2.229-5.994l-4.755-7.099a.336.336 0 0 1 .102-.447.335.335 0 0 1 .453.076l4.754 7.1a14.53 14.53 0 0 1 2.338 6.287l1.684 13.647a.335.335 0 0 1-.291.373l-.038-.002Zm-248.179 84.683a.34.34 0 0 1-.291-.167l-7.201-12.736a8.9 8.9 0 0 1-1.149-4.374v-5.422a.335.335 0 0 1 .668 0v5.422a8.231 8.231 0 0 0 1.062 4.038l7.21 12.739a.342.342 0 0 1 .031.254.34.34 0 0 1-.158.202.334.334 0 0 1-.172.044Z"/><path fill="#458DFF" d="M764.239 160.388c0 25.551-4.791 48.345-14.373 68.38-9.291 19.744-22.212 35.279-38.763 46.603-16.551 11.324-35.279 16.986-56.185 16.986s-39.634-5.662-56.185-16.986c-16.26-11.324-29.181-26.859-38.763-46.603-9.582-20.035-14.373-42.829-14.373-68.38 0-25.552 4.791-48.201 14.373-67.945 9.582-20.035 22.503-35.715 38.763-47.039 16.551-11.614 35.279-17.422 56.185-17.422s39.634 5.808 56.185 17.422c16.551 11.324 29.472 27.004 38.763 47.039 9.582 19.744 14.373 42.393 14.373 67.945Zm-30.052 0c0-20.616-3.339-38.764-10.018-54.443-6.678-15.68-15.97-27.875-27.874-36.586-11.905-9.001-25.697-13.502-41.377-13.502-15.68 0-29.472 4.5-41.377 13.502-11.904 8.71-21.341 20.906-28.31 36.586-6.678 15.679-10.017 33.827-10.017 54.443 0 20.615 3.339 38.763 10.017 54.442 6.969 15.68 16.406 27.875 28.31 36.586 11.905 8.711 25.697 13.066 41.377 13.066 15.68 0 29.472-4.355 41.377-13.066 11.904-9.001 21.196-21.196 27.874-36.586 6.679-15.679 10.018-33.827 10.018-54.442Z"/></svg>