<svg xmlns="http://www.w3.org/2000/svg" width="24" height="24" fill="none"><g clip-path="url(#a)"><path fill="#3C4158" fill-rule="evenodd" d="M14.5 7.25a.75.75 0 0 0 1.5 0v-4.5A2.752 2.752 0 0 0 13.25 0H2C.896 0 0 .897 0 2v18c0 .852.543 1.615 1.362 1.901l6.018 2.005c.203.063.406.093.62.093 1.103 0 2-.897 2-2v-1h3.25A2.752 2.752 0 0 0 16 18.25v-4.5a.75.75 0 0 0-1.5 0v4.5c0 .69-.561 1.25-1.25 1.25H10V4c0-.852-.543-1.615-1.362-1.901L6.843 1.5h6.407c.689 0 1.25.56 1.25 1.25v4.5Zm5 7.75a.744.744 0 0 1-.53-.22.75.75 0 0 1 0-1.062l2.469-2.469h-7.69a.75.75 0 0 1 0-1.5h7.691l-2.47-2.47a.75.75 0 1 1 1.06-1.061l3.75 3.75a.75.75 0 0 1-.014 1.074l-3.736 3.736a.745.745 0 0 1-.53.221ZM2 1.5c-.275 0-.5.225-.5.5v18c0 .212.143.41.347.481l5.99 1.996c.043.014.099.022.163.022.275 0 .5-.225.5-.5v-18a.52.52 0 0 0-.347-.481l-5.99-1.996A.543.543 0 0 0 2 1.5Z" clip-rule="evenodd"/></g><defs><clipPath id="a"><path fill="#fff" d="M0 0h24v24H0z"/></clipPath></defs></svg>