<svg width="16" height="16" viewBox="0 0 16 16" fill="none" xmlns="http://www.w3.org/2000/svg">
<path d="M3.36999 2.16428C3.32608 2.11478 3.27279 2.0745 3.21319 2.04575C3.1536 2.017 3.08889 2.00037 3.02282 1.99682C2.95675 1.99326 2.89063 2.00286 2.8283 2.02504C2.76597 2.04723 2.70865 2.08157 2.65969 2.12607C2.61072 2.17057 2.57108 2.22434 2.54305 2.28428C2.51502 2.34421 2.49916 2.40911 2.4964 2.47522C2.49364 2.54133 2.50402 2.60733 2.52696 2.66939C2.54989 2.73146 2.58491 2.78835 2.62999 2.83678L3.83249 4.15991C1.56249 5.55303 0.586244 7.70053 0.543119 7.79803C0.51469 7.86198 0.5 7.93118 0.5 8.00115C0.5 8.07113 0.51469 8.14034 0.543119 8.20428C0.564994 8.25365 1.09437 9.42741 2.27124 10.6043C3.83937 12.1718 5.81999 13.0005 7.99999 13.0005C9.12038 13.0069 10.2294 12.7762 11.2544 12.3237L12.6294 13.8368C12.6733 13.8863 12.7266 13.9266 12.7862 13.9553C12.8458 13.9841 12.9105 14.0007 12.9765 14.0042C13.0426 14.0078 13.1087 13.9982 13.1711 13.976C13.2334 13.9538 13.2907 13.9195 13.3397 13.875C13.3886 13.8305 13.4283 13.7767 13.4563 13.7168C13.4843 13.6568 13.5002 13.5919 13.503 13.5258C13.5057 13.4597 13.4953 13.3937 13.4724 13.3317C13.4495 13.2696 13.4145 13.2127 13.3694 13.1643L3.36999 2.16428ZM6.32812 6.90428L8.93249 9.76991C8.5403 9.97623 8.09069 10.0465 7.65426 9.96955C7.21783 9.89265 6.81931 9.67298 6.52126 9.34503C6.22321 9.01709 6.04252 8.59944 6.00756 8.15767C5.9726 7.71589 6.08536 7.27502 6.32812 6.90428ZM7.99999 12.0005C6.07624 12.0005 4.39562 11.3012 3.00437 9.92241C2.43332 9.35489 1.94763 8.70752 1.56249 8.00053C1.85562 7.45116 2.79124 5.91366 4.52187 4.91428L5.64687 6.14866C5.21133 6.70647 4.98702 7.4003 5.01358 8.10751C5.04014 8.81472 5.31586 9.48977 5.79202 10.0133C6.26817 10.5369 6.91409 10.8753 7.61561 10.9687C8.31713 11.0621 9.02908 10.9044 9.62562 10.5237L10.5462 11.5362C9.73374 11.8479 8.87023 12.0054 7.99999 12.0005ZM8.37499 6.03616C8.24471 6.01129 8.12963 5.93569 8.05509 5.82598C7.98054 5.71627 7.95263 5.58144 7.97749 5.45116C8.00236 5.32087 8.07796 5.20579 8.18767 5.13125C8.29738 5.0567 8.43221 5.02879 8.56249 5.05366C9.19975 5.1772 9.77999 5.50344 10.2167 5.98371C10.6534 6.46398 10.9231 7.07256 10.9856 7.71866C10.998 7.85068 10.9574 7.98221 10.8727 8.0843C10.7881 8.18639 10.6664 8.25068 10.5344 8.26303C10.5188 8.26395 10.5031 8.26395 10.4875 8.26303C10.3625 8.26357 10.2419 8.21728 10.1493 8.1333C10.0568 8.04931 9.99905 7.93372 9.98749 7.80928C9.94541 7.37953 9.76575 6.97483 9.47522 6.65537C9.1847 6.33591 8.79883 6.11874 8.37499 6.03616ZM15.455 8.20428C15.4287 8.26303 14.7956 9.66491 13.37 10.9418C13.3213 10.9868 13.2641 11.0217 13.2018 11.0444C13.1395 11.0671 13.0732 11.0772 13.007 11.074C12.9407 11.0709 12.8758 11.0546 12.8159 11.0261C12.756 10.9976 12.7023 10.9575 12.6581 10.9081C12.6138 10.8586 12.5799 10.8009 12.5582 10.7382C12.5365 10.6756 12.5274 10.6092 12.5316 10.543C12.5358 10.4768 12.5531 10.4121 12.5826 10.3527C12.612 10.2932 12.653 10.2402 12.7031 10.1968C13.4025 9.56842 13.9901 8.82576 14.4406 8.00053C14.0546 7.29289 13.5679 6.64508 12.9956 6.07741C11.6044 4.69991 9.92374 4.00053 7.99999 4.00053C7.59465 4.00004 7.18996 4.03285 6.78999 4.09866C6.72495 4.11016 6.65828 4.10866 6.59382 4.09425C6.52936 4.07983 6.46839 4.05279 6.41444 4.01468C6.3605 3.97657 6.31463 3.92815 6.2795 3.87222C6.24437 3.81628 6.22067 3.75394 6.20978 3.6888C6.19888 3.62365 6.20099 3.55699 6.216 3.49267C6.23101 3.42835 6.25862 3.36764 6.29723 3.31404C6.33583 3.26045 6.38468 3.21504 6.44094 3.18043C6.49719 3.14582 6.55975 3.1227 6.62499 3.11241C7.07947 3.03736 7.53936 2.99995 7.99999 3.00053C10.18 3.00053 12.1606 3.82928 13.7287 5.39741C14.9056 6.57428 15.435 7.74866 15.4569 7.79803C15.4853 7.86198 15.5 7.93118 15.5 8.00115C15.5 8.07113 15.4853 8.14034 15.4569 8.20428H15.455Z" fill="#878787"/>
</svg>
