<svg xmlns="http://www.w3.org/2000/svg" width="48" height="48" fill="none"><g clip-path="url(#a)"><path fill="#fff" fill-opacity=".8" d="M5.1 3.6c-.8 0-1.4.6-1.4 1.4v37.7c0 .8.6 1.4 1.4 1.4h37.7c.8 0 1.4-.6 1.4-1.4V5.1c0-.8-.6-1.4-1.4-1.4H5.1v-.1Z"/><mask id="b" width="48" height="48" x="0" y="0" maskUnits="userSpaceOnUse" style="mask-type:luminance"><path fill="#fff" d="M48 0H0v48h48V0Z"/></mask><g mask="url(#b)"><path fill="#000" d="M14.6 38.9c-.3 0-.6-.1-.7-.3-.2-.2-.3-.4-.3-.7V9.4c0-.3.1-.6.3-.8.2-.2.4-.3.7-.3h11.2c2.2 0 4.1.3 5.7 1 1.6.7 2.8 1.7 3.7 3.1.9 1.4 1.3 3.1 1.3 5.2s-.4 3.8-1.3 5.2c-.9 1.4-2.1 2.4-3.7 3.1-1.6.7-3.5 1-5.7 1H18v10.9c0 .3-.1.5-.3.7-.2.2-.4.3-.8.3h-2.3v.1Zm3.3-15.6h7.6c2.2 0 3.8-.5 4.9-1.4 1.1-1 1.6-2.4 1.6-4.2 0-1.8-.5-3.2-1.6-4.2S27.7 12 25.5 12h-7.6v11.3Z"/></g><mask id="c" width="48" height="48" x="0" y="0" maskUnits="userSpaceOnUse" style="mask-type:luminance"><path fill="#fff" d="M48 0H0v48h48V0Z"/></mask><g mask="url(#c)"><path fill="#218BEE" d="M42.7 47.8H5.1c-2.8 0-5.1-2.3-5.1-5.1V5.1C0 2.3 2.3 0 5.1 0h37.7c2.8 0 5.1 2.3 5.1 5.1v37.7c-.1 2.7-2.4 5-5.2 5ZM5.1 3.6c-.8 0-1.4.6-1.4 1.4v37.7c0 .8.6 1.4 1.4 1.4h37.7c.8 0 1.4-.6 1.4-1.4V5.1c0-.8-.6-1.4-1.4-1.4H5.1v-.1Z"/></g></g><defs><clipPath id="a"><path fill="#fff" d="M0 0h48v48H0z"/></clipPath></defs></svg>