<svg width="48" height="48" viewBox="0 0 48 48" fill="none" xmlns="http://www.w3.org/2000/svg">
<g clip-path="url(#clip0_875_4578)">
<g opacity="0.8">
<path d="M14.7117 39.0089C14.3811 39.0089 14.1256 38.9121 13.9453 38.7186C13.765 38.5251 13.6748 38.2796 13.6748 37.9819V8.8235C13.6748 8.49605 13.765 8.23558 13.9453 8.04208C14.1256 7.84858 14.3811 7.75183 14.7117 7.75183H26.1626C28.3867 7.75183 30.3177 8.10906 31.9557 8.8235C33.5937 9.53795 34.8635 10.6022 35.7651 12.0162C36.6668 13.4302 37.1176 15.194 37.1176 17.3076C37.1176 19.4211 36.6668 21.1775 35.7651 22.5766C34.8635 23.9757 33.5937 25.0325 31.9557 25.747C30.3177 26.4614 28.3867 26.8186 26.1626 26.8186H18.183V37.9819C18.183 38.2796 18.0854 38.5251 17.89 38.7186C17.6946 38.9121 17.4317 39.0089 17.1011 39.0089H14.7117ZM18.138 23.0678H25.9372C28.1612 23.0678 29.8293 22.5766 30.9413 21.5942C32.0533 20.6119 32.6094 19.183 32.6094 17.3076C32.6094 15.4321 32.0684 14.033 30.9864 13.0209C29.9044 12.0087 28.2213 11.5027 25.9372 11.5027H18.138V23.0678Z" fill="white"/>
<path d="M42.7486 47.8H5.05144C2.26444 47.8 0 45.5356 0 42.7486V5.05145C0 2.26444 2.26444 0 5.05144 0H42.7486C45.5356 0 47.8 2.26444 47.8 5.05145V42.7486C47.8 45.5356 45.5356 47.8 42.7486 47.8ZM5.05144 3.62891C4.2676 3.62891 3.62891 4.2676 3.62891 5.05145V42.7486C3.62891 43.5324 4.2676 44.1711 5.05144 44.1711H42.7486C43.5324 44.1711 44.1711 43.5324 44.1711 42.7486V5.05145C44.1711 4.2676 43.5324 3.62891 42.7486 3.62891H5.05144Z" fill="#218BEE"/>
</g>
</g>
<defs>
<clipPath id="clip0_875_4578">
<rect width="48" height="48" fill="white"/>
</clipPath>
</defs>
</svg>
