<svg width="48" height="48" viewBox="0 0 48 48" fill="none" xmlns="http://www.w3.org/2000/svg">
<g clip-path="url(#clip0_940_6875)">
<g opacity="0.8">
<path d="M14.5821 38.9237C14.2587 38.9237 14.0089 38.8291 13.8325 38.6398C13.6561 38.4505 13.5679 38.2103 13.5679 37.9191V9.39739C13.5679 9.07709 13.6561 8.8223 13.8325 8.63303C14.0089 8.44376 14.2587 8.34912 14.5821 8.34912H25.783C27.9585 8.34912 29.8474 8.69855 31.4496 9.39739C33.0518 10.0962 34.2939 11.1372 35.1759 12.5204C36.0578 13.9035 36.4988 15.6288 36.4988 17.6962C36.4988 19.7636 36.0578 21.4816 35.1759 22.8502C34.2939 24.2188 33.0518 25.2525 31.4496 25.9513C29.8474 26.6502 27.9585 26.9996 25.783 26.9996H17.9777V37.9191C17.9777 38.2103 17.8821 38.4505 17.691 38.6398C17.4999 38.8291 17.2427 38.9237 16.9193 38.9237H14.5821ZM17.9336 23.3307H25.5625C27.738 23.3307 29.3696 22.8502 30.4574 21.8893C31.5451 20.9284 32.089 19.5307 32.089 17.6962C32.089 15.8617 31.5598 14.4932 30.5015 13.5031C29.4431 12.5131 27.7968 12.0181 25.5625 12.0181H17.9336V23.3307Z" fill="black"/>
<path d="M42.7486 47.8H5.05144C2.26444 47.8 0 45.5356 0 42.7486V5.05145C0 2.26444 2.26444 0 5.05144 0H42.7486C45.5356 0 47.8 2.26444 47.8 5.05145V42.7486C47.8 45.5356 45.5356 47.8 42.7486 47.8ZM5.05144 3.62891C4.2676 3.62891 3.62891 4.2676 3.62891 5.05145V42.7486C3.62891 43.5324 4.2676 44.1711 5.05144 44.1711H42.7486C43.5324 44.1711 44.1711 43.5324 44.1711 42.7486V5.05145C44.1711 4.2676 43.5324 3.62891 42.7486 3.62891H5.05144Z" fill="#218BEE"/>
</g>
</g>
<defs>
<clipPath id="clip0_940_6875">
<rect width="48" height="48" fill="white"/>
</clipPath>
</defs>
</svg>
