<svg xmlns="http://www.w3.org/2000/svg" width="117" height="26" viewBox="0 0 117 26" fill="none">
  <path
    d="M32.0108 20.3193C31.2566 20.3193 30.5702 20.1684 29.9517 19.8667C29.3332 19.565 28.8354 19.1577 28.4583 18.6448C28.0811 18.1319 27.8926 17.5512 27.8926 16.9025C27.8926 15.8616 28.315 15.0319 29.1597 14.4135C30.0045 13.795 31.1057 13.3877 32.4634 13.1916L35.8349 12.7164V12.0602C35.8349 11.3361 35.6275 10.7704 35.2126 10.3631C34.7978 9.95581 34.1227 9.75216 33.1875 9.75216C32.5086 9.75216 31.9618 9.88793 31.5469 10.1595C31.1321 10.431 30.8417 10.7779 30.6758 11.2003C30.5853 11.4266 30.4269 11.5397 30.2006 11.5397H29.1824C29.0164 11.5397 28.892 11.4907 28.809 11.3927C28.726 11.2946 28.6845 11.1777 28.6845 11.0419C28.6845 10.8157 28.7713 10.5366 28.9448 10.2047C29.1182 9.87284 29.386 9.54851 29.748 9.23172C30.1101 8.91494 30.574 8.64718 31.1396 8.42844C31.7053 8.20971 32.3955 8.10034 33.2101 8.10034C34.1152 8.10034 34.877 8.21725 35.4955 8.45107C36.114 8.68489 36.6005 8.9979 36.955 9.39012C37.3095 9.78233 37.5659 10.2273 37.7243 10.7251C37.8827 11.223 37.9619 11.7283 37.9619 12.2412V19.5726C37.9619 19.7234 37.9129 19.8479 37.8148 19.9459C37.7167 20.044 37.5923 20.093 37.4414 20.093H36.4006C36.2346 20.093 36.1064 20.044 36.0159 19.9459C35.9254 19.8479 35.8801 19.7234 35.8801 19.5726V18.5996C35.684 18.8711 35.42 19.1389 35.0882 19.4028C34.7563 19.6668 34.3415 19.8856 33.8436 20.0591C33.3458 20.2325 32.7349 20.3193 32.0108 20.3193ZM32.486 18.6222C33.1045 18.6222 33.6702 18.4902 34.1831 18.2262C34.696 17.9622 35.0995 17.5512 35.3936 16.993C35.6878 16.4349 35.8349 15.7334 35.8349 14.8886V14.2551L33.2101 14.6397C32.139 14.7906 31.332 15.0433 30.7889 15.3978C30.2459 15.7523 29.9743 16.201 29.9743 16.7441C29.9743 17.1665 30.0988 17.5172 30.3477 17.7963C30.5966 18.0754 30.9134 18.2828 31.298 18.4185C31.6827 18.5543 32.0787 18.6222 32.486 18.6222Z"
    fill="white"
  />
  <path
    d="M41.967 20.093C41.8161 20.093 41.6917 20.044 41.5936 19.946C41.4956 19.8479 41.4465 19.7235 41.4465 19.5726V8.86972C41.4465 8.71887 41.4956 8.59065 41.5936 8.48505C41.6917 8.37946 41.8161 8.32666 41.967 8.32666H43.0078C43.1587 8.32666 43.2869 8.37946 43.3925 8.48505C43.4981 8.59065 43.5509 8.71887 43.5509 8.86972V9.86534C43.8526 9.35245 44.2674 8.96778 44.7954 8.71133C45.3234 8.45489 45.957 8.32666 46.6961 8.32666H47.6013C47.7521 8.32666 47.8728 8.37569 47.9633 8.47374C48.0538 8.57179 48.0991 8.69624 48.0991 8.8471V9.77483C48.0991 9.92568 48.0538 10.0464 47.9633 10.1369C47.8728 10.2274 47.7521 10.2726 47.6013 10.2726H46.2436C45.429 10.2726 44.7879 10.5102 44.3202 10.9854C43.8526 11.4606 43.6188 12.1055 43.6188 12.9201V19.5726C43.6188 19.7235 43.566 19.8479 43.4604 19.946C43.3548 20.044 43.2266 20.093 43.0757 20.093H41.967Z"
    fill="white"
  />
  <path
    d="M50.8144 20.093C50.6635 20.093 50.5391 20.0439 50.441 19.9459C50.343 19.8478 50.2939 19.7234 50.2939 19.5725V4.54778C50.2939 4.39693 50.343 4.27248 50.441 4.17442C50.5391 4.07637 50.6635 4.02734 50.8144 4.02734H51.8779C52.0287 4.02734 52.1532 4.07637 52.2512 4.17442C52.3493 4.27248 52.3983 4.39693 52.3983 4.54778V12.4222L56.856 8.71127C57.037 8.56042 57.1765 8.45859 57.2746 8.40579C57.3726 8.353 57.5348 8.3266 57.7611 8.3266H58.9603C59.0961 8.3266 59.2092 8.37185 59.2997 8.46236C59.3903 8.55287 59.4355 8.66601 59.4355 8.80178C59.4355 8.86212 59.4167 8.93 59.3789 9.00543C59.3412 9.08085 59.2696 9.15628 59.164 9.2317L53.937 13.5762L59.7297 19.2105C59.9107 19.3613 60.0012 19.4971 60.0012 19.6178C60.0012 19.7536 59.9559 19.8667 59.8654 19.9572C59.7749 20.0477 59.6618 20.093 59.526 20.093H58.3494C58.1231 20.093 57.9572 20.0666 57.8516 20.0138C57.746 19.961 57.6102 19.8592 57.4443 19.7083L52.3983 14.8886V19.5725C52.3983 19.7234 52.3493 19.8478 52.2512 19.9459C52.1532 20.0439 52.0287 20.093 51.8779 20.093H50.8144Z"
    fill="white"
  />
  <path
    d="M66.4502 20.3193C65.3038 20.3193 64.3459 20.1005 63.5765 19.6631C62.8072 19.2256 62.2189 18.6184 61.8116 17.8415C61.4043 17.0647 61.178 16.1784 61.1327 15.1828C61.1176 14.9263 61.1101 14.5982 61.1101 14.1985C61.1101 13.7987 61.1176 13.4782 61.1327 13.2368C61.178 12.2261 61.408 11.3361 61.8229 10.5668C62.2377 9.79742 62.8298 9.19401 63.5992 8.75654C64.3685 8.31907 65.3188 8.10034 66.4502 8.10034C67.5816 8.10034 68.532 8.31907 69.3013 8.75654C70.0707 9.19401 70.6627 9.79742 71.0776 10.5668C71.4924 11.3361 71.7225 12.2261 71.7677 13.2368C71.7828 13.4782 71.7904 13.7987 71.7904 14.1985C71.7904 14.5982 71.7828 14.9263 71.7677 15.1828C71.7225 16.1784 71.4962 17.0647 71.0889 17.8415C70.6816 18.6184 70.0933 19.2256 69.3239 19.6631C68.5546 20.1005 67.5967 20.3193 66.4502 20.3193ZM66.4502 18.5769C67.3855 18.5769 68.1322 18.279 68.6904 17.6831C69.2485 17.0873 69.5502 16.2161 69.5955 15.0697C69.6106 14.8434 69.6181 14.5568 69.6181 14.2098C69.6181 13.8628 69.6106 13.5762 69.5955 13.35C69.5502 12.2035 69.2485 11.3323 68.6904 10.7365C68.1322 10.1406 67.3855 9.84267 66.4502 9.84267C65.515 9.84267 64.7645 10.1406 64.1988 10.7365C63.6331 11.3323 63.3352 12.2035 63.305 13.35C63.2899 13.5762 63.2824 13.8628 63.2824 14.2098C63.2824 14.5568 63.2899 14.8434 63.305 15.0697C63.3352 16.2161 63.6331 17.0873 64.1988 17.6831C64.7645 18.279 65.515 18.5769 66.4502 18.5769Z"
    fill="white"
  />
  <path
    d="M75.3654 20.093C75.2146 20.093 75.0901 20.044 74.9921 19.9459C74.894 19.8479 74.845 19.7234 74.845 19.5726V8.84705C74.845 8.6962 74.894 8.57175 74.9921 8.4737C75.0901 8.37564 75.2146 8.32662 75.3654 8.32662H76.4289C76.5798 8.32662 76.7042 8.37564 76.8023 8.4737C76.9003 8.57175 76.9493 8.6962 76.9493 8.84705V9.84267C77.3416 9.32978 77.8356 8.91117 78.4315 8.58684C79.0273 8.26251 79.7929 8.10034 80.7282 8.10034C81.6634 8.10034 82.5421 8.3153 83.2285 8.74523C83.9149 9.17515 84.4315 9.77102 84.7785 10.5328C85.1255 11.2946 85.2989 12.1809 85.2989 13.1916V19.5726C85.2989 19.7234 85.2537 19.8479 85.1632 19.9459C85.0727 20.044 84.952 20.093 84.8011 20.093H83.6698C83.5189 20.093 83.3945 20.044 83.2964 19.9459C83.1983 19.8479 83.1493 19.7234 83.1493 19.5726V13.3047C83.1493 12.2487 82.8929 11.4228 82.38 10.827C81.8671 10.2311 81.1128 9.93318 80.1172 9.93318C79.1819 9.93318 78.4315 10.2311 77.8658 10.827C77.3001 11.4228 77.0172 12.2487 77.0172 13.3047V19.5726C77.0172 19.7234 76.9682 19.8479 76.8701 19.9459C76.7721 20.044 76.6476 20.093 76.4968 20.093H75.3654Z"
    fill="white"
  />
  <path
    d="M92.0648 20.3193C91.3105 20.3193 90.6241 20.1684 90.0057 19.8667C89.3872 19.565 88.8894 19.1577 88.5122 18.6448C88.1351 18.1319 87.9465 17.5512 87.9465 16.9025C87.9465 15.8616 88.3689 15.0319 89.2137 14.4135C90.0585 13.795 91.1597 13.3877 92.5173 13.1916L95.8888 12.7164V12.0602C95.8888 11.3361 95.6814 10.7704 95.2666 10.3631C94.8517 9.95581 94.1767 9.75216 93.2414 9.75216C92.5626 9.75216 92.0157 9.88793 91.6009 10.1595C91.1861 10.431 90.8957 10.7779 90.7297 11.2003C90.6392 11.4266 90.4808 11.5397 90.2546 11.5397H89.2363C89.0704 11.5397 88.9459 11.4907 88.863 11.3927C88.78 11.2946 88.7385 11.1777 88.7385 11.0419C88.7385 10.8157 88.8252 10.5366 88.9987 10.2047C89.1722 9.87284 89.44 9.54851 89.802 9.23172C90.164 8.91494 90.6279 8.64718 91.1936 8.42844C91.7593 8.20971 92.4494 8.10034 93.264 8.10034C94.1691 8.10034 94.9309 8.21725 95.5494 8.45107C96.1679 8.68489 96.6544 8.9979 97.0089 9.39012C97.3634 9.78233 97.6199 10.2273 97.7782 10.7251C97.9366 11.223 98.0158 11.7283 98.0158 12.2412V19.5726C98.0158 19.7234 97.9668 19.8479 97.8688 19.9459C97.7707 20.044 97.6463 20.093 97.4954 20.093H96.4545C96.2886 20.093 96.1604 20.044 96.0699 19.9459C95.9794 19.8479 95.9341 19.7234 95.9341 19.5726V18.5996C95.738 18.8711 95.474 19.1389 95.1421 19.4028C94.8103 19.6668 94.3954 19.8856 93.8976 20.0591C93.3998 20.2325 92.7889 20.3193 92.0648 20.3193ZM92.54 18.6222C93.1584 18.6222 93.7241 18.4902 94.237 18.2262C94.7499 17.9622 95.1534 17.5512 95.4476 16.993C95.7418 16.4349 95.8888 15.7334 95.8888 14.8886V14.2551L93.264 14.6397C92.193 14.7906 91.3859 15.0433 90.8429 15.3978C90.2998 15.7523 90.0283 16.201 90.0283 16.7441C90.0283 17.1665 90.1527 17.5172 90.4016 17.7963C90.6505 18.0754 90.9673 18.2828 91.352 18.4185C91.7367 18.5543 92.1327 18.6222 92.54 18.6222Z"
    fill="white"
  />
  <path
    d="M103.082 20.0931C102.932 20.0931 102.807 20.0441 102.709 19.946C102.611 19.848 102.562 19.7235 102.562 19.5727V10.1369H100.639C100.488 10.1369 100.363 10.0879 100.265 9.98985C100.167 9.89179 100.118 9.76734 100.118 9.61649V8.84715C100.118 8.6963 100.167 8.57185 100.265 8.47379C100.363 8.37574 100.488 8.32671 100.639 8.32671H102.562V7.19533C102.562 6.42599 102.69 5.75093 102.947 5.17016C103.203 4.58938 103.614 4.1406 104.18 3.82381C104.746 3.50702 105.504 3.34863 106.454 3.34863H107.812C107.962 3.34863 108.083 3.39766 108.174 3.49571C108.264 3.59377 108.309 3.71822 108.309 3.86907V4.63841C108.309 4.78926 108.264 4.91371 108.174 5.01176C108.083 5.10982 107.962 5.15884 107.812 5.15884H106.499C105.79 5.15884 105.307 5.34364 105.051 5.71322C104.795 6.08281 104.666 6.61456 104.666 7.30847V8.32671H107.585C107.736 8.32671 107.857 8.37574 107.947 8.47379C108.038 8.57185 108.083 8.6963 108.083 8.84715V9.61649C108.083 9.76734 108.038 9.89179 107.947 9.98985C107.857 10.0879 107.736 10.1369 107.585 10.1369H104.666V19.5727C104.666 19.7235 104.617 19.848 104.519 19.946C104.421 20.0441 104.297 20.0931 104.146 20.0931H103.082Z"
    fill="white"
  />
  <path
    d="M114.917 20.0932C114.072 20.0932 113.386 19.9311 112.858 19.6067C112.33 19.2824 111.945 18.8223 111.704 18.2264C111.462 17.6306 111.342 16.9253 111.342 16.1108V10.1371H109.577C109.426 10.1371 109.301 10.088 109.203 9.98997C109.105 9.89192 109.056 9.76747 109.056 9.61662V8.84728C109.056 8.69642 109.105 8.57197 109.203 8.47392C109.301 8.37587 109.426 8.32684 109.577 8.32684H111.342V4.54803C111.342 4.39717 111.391 4.27272 111.489 4.17467C111.587 4.07661 111.711 4.02759 111.862 4.02759H112.925C113.076 4.02759 113.201 4.07661 113.299 4.17467C113.397 4.27272 113.446 4.39717 113.446 4.54803V8.32684H116.252C116.403 8.32684 116.527 8.37587 116.625 8.47392C116.723 8.57197 116.772 8.69642 116.772 8.84728V9.61662C116.772 9.76747 116.723 9.89192 116.625 9.98997C116.527 10.088 116.403 10.1371 116.252 10.1371H113.446V15.9524C113.446 16.6614 113.567 17.2195 113.808 17.6268C114.049 18.0341 114.479 18.2378 115.098 18.2378H116.478C116.629 18.2378 116.753 18.2868 116.851 18.3848C116.949 18.4829 116.998 18.6073 116.998 18.7582V19.5728C116.998 19.7236 116.949 19.8481 116.851 19.9461C116.753 20.0442 116.629 20.0932 116.478 20.0932H114.917Z"
    fill="white"
  />
  <path
    d="M7.53077 21C7.36154 21 7.23077 20.9505 7.13846 20.8514C7.04615 20.7524 7 20.6267 7 20.4743V5.54857C7 5.38095 7.04615 5.24762 7.13846 5.14857C7.23077 5.04953 7.36154 5 7.53077 5H13.3923C14.5308 5 15.5192 5.18286 16.3577 5.54857C17.1962 5.91429 17.8462 6.45905 18.3077 7.18286C18.7692 7.90667 19 8.80953 19 9.89143C19 10.9733 18.7692 11.8724 18.3077 12.5886C17.8462 13.3048 17.1962 13.8457 16.3577 14.2114C15.5192 14.5771 14.5308 14.76 13.3923 14.76H9.30769V20.4743C9.30769 20.6267 9.25769 20.7524 9.15769 20.8514C9.05769 20.9505 8.92308 21 8.75384 21H7.53077ZM9.28462 12.84H13.2769C14.4154 12.84 15.2692 12.5886 15.8385 12.0857C16.4077 11.5829 16.6923 10.8514 16.6923 9.89143C16.6923 8.93143 16.4154 8.21524 15.8615 7.69714C15.3077 7.17905 14.4462 6.92 13.2769 6.92H9.28462V12.84Z"
    fill="white"
  />
  <path
    d="M22.358 25.5H2.64197C1.18433 25.5 0 24.3157 0 22.858V3.14197C0 1.68433 1.18433 0.5 2.64197 0.5H22.358C23.8157 0.5 25 1.68433 25 3.14197V22.858C25 24.3157 23.8157 25.5 22.358 25.5ZM2.64197 2.39797C2.23201 2.39797 1.89797 2.73201 1.89797 3.14197V22.858C1.89797 23.268 2.23201 23.602 2.64197 23.602H22.358C22.768 23.602 23.102 23.268 23.102 22.858V3.14197C23.102 2.73201 22.768 2.39797 22.358 2.39797H2.64197Z"
    fill="#3473D9"
  />
</svg>
