<svg xmlns="http://www.w3.org/2000/svg" width="26" height="34" fill="none"><path fill="url(#a)" d="M13 0C5.86 0 .05 5.81.05 12.95c0 10.308 11.81 20.4 12.312 20.82.14.115.413.23.638.23.225 0 .498-.115.638-.23.502-.42 12.311-10.512 12.311-20.82C25.95 5.81 20.14 0 13 0Z"/><path fill="#fff" d="M13.996 9.96h-1.992v1.993h1.992a.997.997 0 0 0 .996-.996.997.997 0 0 0-.996-.996ZM13 3.985c-4.943 0-8.965 4.022-8.965 8.965 0 4.944 4.022 8.965 8.965 8.965 4.944 0 8.965-4.021 8.965-8.965 0-4.943-4.021-8.965-8.965-8.965Zm.996 9.961h-1.992v2.989a.995.995 0 1 1-1.992 0v-7.97c0-.55.445-.995.996-.995h2.988a2.992 2.992 0 0 1 2.988 2.988 2.992 2.992 0 0 1-2.988 2.988Z"/><defs><linearGradient id="a" x1="13" x2="13" y1="34" y2="0" gradientUnits="userSpaceOnUse"><stop stop-color="#FF2121"/><stop offset="1" stop-color="#FF5252"/></linearGradient></defs></svg>