<svg xmlns="http://www.w3.org/2000/svg" width="24" height="24" fill="none"><path fill="#3C4158" fill-rule="evenodd" d="M7.885 22.125H4.75a1.877 1.877 0 0 1-1.875-1.875V3.75c0-1.034.841-1.875 1.875-1.875h11.526c1.034 0 1.875.841 1.875 1.875v5.766a.938.938 0 0 0 1.875 0V3.75A3.754 3.754 0 0 0 16.276 0H4.75A3.754 3.754 0 0 0 1 3.75v16.5A3.754 3.754 0 0 0 4.75 24h3.135a.937.937 0 1 0 0-1.875Zm8.391-11.813a.937.937 0 0 0-.937-.937H5.682a.937.937 0 1 0 0 1.875h9.657c.517 0 .937-.42.937-.938ZM5.682 13.126a.937.937 0 1 0 0 1.875h5.865a.938.938 0 0 0 0-1.875H5.682Zm12.028.448a2.815 2.815 0 0 1 3.977 0 2.816 2.816 0 0 1 0 3.978l-5.137 5.127a.937.937 0 0 1-.412.24l-3.784 1.048a.937.937 0 0 1-1.147-1.176l1.121-3.69a.937.937 0 0 1 .235-.391l5.147-5.136Zm-4.213 8.131 1.903-.527 3.453-3.446-1.326-1.326-3.473 3.465-.557 1.834Zm6.683-5.298.182-.181a.938.938 0 0 0-1.327-1.325l-.18.18 1.325 1.326ZM5.682 5.625h9.657a.937.937 0 1 1 0 1.875H5.682a.937.937 0 1 1 0-1.875Z" clip-rule="evenodd"/></svg>