<svg version="1.1" xmlns="http://www.w3.org/2000/svg" x="0px" y="0px" viewBox="0 0 256 256">
  <path d="M128,10c-32.6,0-60.4,11.5-83.4,34.6C21.5,67.6,10,95.4,10,128s11.5,60.4,34.6,83.4c23,23,50.8,34.6,83.4,34.6c32.6,0,60.4-11.5,83.4-34.6c23-23,34.6-50.8,34.6-83.4s-11.5-60.4-34.6-83.4C188.4,21.5,160.6,10,128,10z M128,231.7c-28.6,0-52.9-10.1-73.1-30.4C34.8,181,24.8,156.6,24.8,128c0-28.6,10-52.9,30.2-73.1C75.1,34.8,99.4,24.7,128,24.7c28.6,0,52.9,10.1,73.1,30.2c20.1,20.1,30.2,44.5,30.2,73.1c0,28.6-10.1,53-30.2,73.3C180.9,221.6,156.6,231.7,128,231.7z M179.6,120.6h-44.3V76.4c0-2.1-0.7-3.9-2.1-5.3c-1.4-1.4-3.2-2.1-5.3-2.1c-2.1,0-3.9,0.7-5.3,2.1c-1.4,1.4-2.1,3.2-2.1,5.3v44.3H76.4c-2.1,0-3.9,0.7-5.3,2.1c-1.4,1.4-2.1,3.2-2.1,5.3c0,2.1,0.7,3.9,2.1,5.3c1.4,1.4,3.2,2.1,5.3,2.1h44.3v44.3c0,2.1,0.7,3.9,2.1,5.3c1.4,1.4,3.2,2.1,5.3,2.1c2.1,0,3.9-0.7,5.3-2.1c1.4-1.4,2.1-3.2,2.1-5.3v-44.3h44.3c2.1,0,3.9-0.7,5.3-2.1s2.1-3.2,2.1-5.3c0-2.1-0.7-3.9-2.1-5.3C183.6,121.3,181.8,120.6,179.6,120.6z"/>
</svg>
